<?xml version="1.0" standalone="no"?>
<!DOCTYPE svg PUBLIC "-//W3C//DTD SVG 20010904//EN"
 "http://www.w3.org/TR/2001/REC-SVG-20010904/DTD/svg10.dtd">
<svg version="1.0" xmlns="http://www.w3.org/2000/svg"
 width="198.000000pt" height="198.000000pt" viewBox="0 0 198.000000 198.000000"
 preserveAspectRatio="xMidYMid meet">

<g transform="translate(0.000000,198.000000) scale(0.100000,-0.100000)"
fill="#000000" stroke="none">
<path d="M0 990 l0 -990 990 0 990 0 0 990 0 990 -990 0 -990 0 0 -990z m767
273 c101 -50 173 -163 173 -273 0 -106 -71 -222 -166 -270 -58 -29 -163 -38
-227 -21 -23 7 -64 28 -90 47 -164 119 -166 362 -3 485 61 47 93 57 184 58 61
1 83 -4 129 -26z m325 -115 l3 -72 55 72 c55 72 55 72 103 72 55 0 55 1 -12
-80 -26 -30 -53 -63 -60 -72 -12 -16 -5 -28 58 -108 l71 -90 -52 0 -53 1 -55
75 -55 76 -3 -76 -3 -76 -44 0 -45 0 0 175 0 175 45 0 44 0 3 -72z m348 -41
c0 -128 11 -157 60 -157 53 0 60 19 60 151 l0 119 45 0 45 0 0 -115 c0 -126
-10 -164 -54 -204 -34 -32 -119 -41 -165 -17 -59 31 -71 65 -71 209 l0 127 40
0 40 0 0 -113z m-411 -332 c15 -18 15 -19 -1 -7 -13 10 -17 10 -21 0 -3 -7 -5
3 -5 22 0 19 2 28 5 20 3 -8 13 -24 22 -35z m43 16 c2 -17 1 -28 -4 -25 -8 5
-12 54 -4 54 2 0 6 -13 8 -29z m35 -8 c-3 -10 -5 -4 -5 12 0 17 2 24 5 18 2
-7 2 -21 0 -30z"/>
<path d="M535 1159 c-38 -22 -76 -48 -82 -57 -9 -10 -13 -50 -13 -112 0 -81 3
-99 19 -117 30 -32 146 -93 178 -93 30 0 159 70 181 97 7 11 12 51 12 113 0
62 -5 102 -12 113 -22 28 -151 97 -183 97 -17 0 -61 -18 -100 -41z m30 -139
l-29 -30 29 -30 c16 -16 26 -32 24 -35 -3 -2 -21 11 -39 30 l-34 35 34 35 c18
19 36 32 39 30 2 -3 -8 -19 -24 -35z m155 -65 c-18 -19 -36 -32 -39 -30 -2 3
8 19 24 35 l29 30 -27 28 c-41 43 -32 52 10 10 l37 -38 -34 -35z m-77 35 c-9
-33 -19 -60 -23 -60 -4 0 -1 27 7 60 9 33 19 60 23 60 4 0 1 -27 -7 -60z"/>
</g>
</svg>
