<?xml version="1.0" encoding="utf-8"?>
<!-- Generator: Adobe Illustrator 24.3.0, SVG Export Plug-In . SVG Version: 6.00 Build 0)  -->
<svg version="1.1" id="Warstwa_1" xmlns="http://www.w3.org/2000/svg" xmlns:xlink="http://www.w3.org/1999/xlink" x="0px" y="0px"
	 viewBox="0 0 300 200" style="enable-background:new 0 0 300 200;" xml:space="preserve">
<style type="text/css">
	.st0{fill:#FFFFFF;}
</style>
<path class="st0" d="M0,0v200h300V0H0z M109.4,175.6L62,107.7v67.9H30.9V20.3h29.9v53.8l43.7-53.8h34L84.7,88.7l59.1,86.9H109.4z
	 M269.1,127.3c0,12-3.7,23.9-10.9,33.5c-7.4,9.8-19.6,18.9-39.2,18.9c-42.9,0-55.8-30.6-54.6-58.8c0.4-9.3,0-100.6,0-100.6h30.3
	v110.6c0,3.5,0.7,6.9,2.3,10c2.6,5.1,8.1,10.7,19.5,10.5c8.6-0.2,14.1-3.4,17.6-7.2c3.9-4.1,5.9-9.7,5.9-15.4V20.3h29.1V127.3z"/>
</svg>
